<svg xmlns="http://www.w3.org/2000/svg" width="1440" height="820" viewBox="0 0 1440 820">
<rect width="1440" height="820" fill="#f2f7f3"/><rect width="252" height="820" fill="#fbfdfb" stroke="#e0ebe3"/><rect x="34" y="32" width="36" height="36" rx="10" fill="#286f52"/><text x="52" y="55" text-anchor="middle" font-family="Arial" font-size="12" font-weight="700" fill="#fff">AO</text><text x="84" y="49" font-family="Arial" font-size="16" font-weight="700" fill="#193028">Atelier OS</text><text x="84" y="66" font-family="Arial" font-size="10" fill="#77867e">Opera&#231;&#227;o automotiva</text>
<g font-family="Arial" font-size="13"><text x="34" y="152" fill="#77867e">Vis&#227;o geral</text><text x="34" y="198" fill="#77867e">Atendimentos</text><text x="34" y="244" fill="#77867e">Agenda</text><rect x="18" y="264" width="216" height="42" rx="11" fill="#e4f1e8"/><rect x="18" y="264" width="4" height="42" rx="2" fill="#286f52"/><text x="34" y="290" fill="#193028" font-weight="700">Clientes e ve&#237;culos</text><text x="34" y="336" fill="#77867e">Servi&#231;os e pre&#231;os</text><text x="34" y="382" fill="#77867e">Equipe</text><text x="34" y="428" fill="#77867e">Conversas</text><text x="34" y="474" fill="#77867e">Relat&#243;rios</text><text x="34" y="520" fill="#77867e">Configura&#231;&#245;es</text></g>
<rect x="252" width="1188" height="78" fill="#fff" stroke="#e0ebe3"/><g font-family="Arial"><text x="300" y="128" font-size="10" letter-spacing="2" font-weight="700" fill="#94a09a">BASE DE RELACIONAMENTO</text><text x="300" y="174" font-size="32" font-weight="700" fill="#193028">Clientes e ve&#237;culos</text><text x="300" y="202" font-size="13" fill="#77867e">Hist&#243;rico de visitas, fichas e ve&#237;culos vinculados.</text><rect x="1040" y="143" width="172" height="42" rx="11" fill="#286f52"/><text x="1126" y="169" text-anchor="middle" font-size="12" font-weight="700" fill="#fff">+ Novo cliente</text>
<rect x="300" y="245" width="770" height="494" rx="18" fill="#fff" stroke="#e0ebe3"/><rect x="300" y="245" width="770" height="60" rx="18" fill="#f7fbf8"/><text x="330" y="281" font-size="12" fill="#77867e">Buscar cliente, placa ou modelo</text><text x="945" y="281" font-size="11" fill="#286f52">4 clientes ativos</text><line x1="330" y1="330" x2="1040" y2="330" stroke="#e0ebe3"/><text x="330" y="360" font-size="10" font-weight="700" fill="#94a09a">CLIENTE</text><text x="545" y="360" font-size="10" font-weight="700" fill="#94a09a">VE&#205;CULO</text><text x="770" y="360" font-size="10" font-weight="700" fill="#94a09a">&#218;LTIMO SERVI&#199;O</text><text x="965" y="360" font-size="10" font-weight="700" fill="#94a09a">A&#199;&#195;O</text>
<g font-size="12"><text x="330" y="405" font-weight="700" fill="#193028">Rafael Nogueira</text><text x="545" y="405" fill="#77867e">Honda Civic &#183; RGT-4B21</text><text x="770" y="405" fill="#77867e">Detalhamento interno</text><text x="965" y="405" fill="#286f52">Ver ficha</text><line x1="330" y1="430" x2="1040" y2="430" stroke="#edf2ee"/><text x="330" y="475" font-weight="700" fill="#193028">Camila Bittencourt</text><text x="545" y="475" fill="#77867e">Toyota Corolla &#183; FDL-8A06</text><text x="770" y="475" fill="#77867e">Polimento t&#233;cnico</text><text x="965" y="475" fill="#286f52">Ver ficha</text><line x1="330" y1="500" x2="1040" y2="500" stroke="#edf2ee"/><text x="330" y="545" font-weight="700" fill="#193028">Jo&#227;o Vitor Mendes</text><text x="545" y="545" fill="#77867e">Jeep Compass &#183; EKW-1C73</text><text x="770" y="545" fill="#77867e">Higieniza&#231;&#227;o completa</text><text x="965" y="545" fill="#286f52">Ver ficha</text><line x1="330" y1="570" x2="1040" y2="570" stroke="#edf2ee"/><text x="330" y="615" font-weight="700" fill="#193028">Marina Albuquerque</text><text x="545" y="615" fill="#77867e">BMW 320i &#183; GHA-5D92</text><text x="770" y="615" fill="#77867e">Prote&#231;&#227;o cer&#226;mica</text><text x="965" y="615" fill="#286f52">Ver ficha</text></g>
<rect x="1100" y="245" width="250" height="494" rx="18" fill="#fff" stroke="#e0ebe3"/><text x="1130" y="285" font-size="10" letter-spacing="1.5" font-weight="700" fill="#94a09a">NOVO CADASTRO</text><text x="1130" y="325" font-size="19" font-weight="700" fill="#193028">Criar cliente</text><text x="1130" y="355" font-size="11" fill="#77867e">Nome completo</text><rect x="1130" y="366" width="190" height="34" rx="8" fill="#f7fbf8" stroke="#e0ebe3"/><text x="1142" y="388" font-size="11" fill="#a0aaa4">Ex.: Rafael Nogueira</text><text x="1130" y="430" font-size="11" fill="#77867e">WhatsApp</text><rect x="1130" y="441" width="190" height="34" rx="8" fill="#f7fbf8" stroke="#e0ebe3"/><text x="1142" y="463" font-size="11" fill="#a0aaa4">(19) 99999-0000</text><text x="1130" y="505" font-size="11" fill="#77867e">Ve&#237;culo e placa</text><rect x="1130" y="516" width="190" height="34" rx="8" fill="#f7fbf8" stroke="#e0ebe3"/><text x="1142" y="538" font-size="11" fill="#a0aaa4">Modelo &#183; ABC-1D23</text><rect x="1130" y="590" width="190" height="38" rx="9" fill="#286f52"/><text x="1225" y="614" text-anchor="middle" font-size="11" font-weight="700" fill="#fff">Salvar cliente</text><text x="1130" y="665" font-size="11" fill="#77867e">Depois, ele pode ser</text><text x="1130" y="684" font-size="11" fill="#77867e">reutilizado no atendimento.</text></g></svg>
